CIRQUES DU FREAK THE VAMPIRES ASSISTANT 2009 DvDRip XviD

Format                           : AVI
Format/Info                      : Audio Video Interleave
File size                        : 483 MiB
Duration                         : 1h 44mn
Overall bit rate                 : 647 Kbps
Writing application              : MEncoder Sherpya-SVN-r27811-4.2.5
Writing library                  : MPlayer

Video
ID                               : 0
Format                           : MPEG-4 Visual
Format profile                   : AdvancedSimple@L5
Format settings, BVOP            : No
Format settings, QPel            : No
Format settings, GMC             : No warppoints
Format settings, Matrix          : Default (H.263)
Codec ID                         : XVID
Codec ID/Hint                    : XviD
Duration                         : 1h 44mn
Bit rate                         : 512 Kbps
Width                            : 480 pixels
Height                           : 202 pixels
Display aspect ratio             : 2.35:1
Frame rate                       : 25.000 fps
Resolution                       : 24 bits
Colorimetry                      : 4:2:0
Scan type                        : Progressive
Bits/(Pixel*Frame)               : 0.211
Stream size                      : 382 MiB (79%)
Writing library                  : XviD 1.1.2 (UTC 2006-11-01)

Audio
ID                               : 1
Format                           : MPEG Audio
Format version                   : Version 1
Format profile                   : Layer 3
Codec ID                         : 55
Codec ID/Hint                    : MP3
Duration                         : 1h 44mn
Bit rate mode                    : Constant
Bit rate                         : 32.0 Kbps
Channel(s)                       : 2 channels
Sampling rate                    : 44.1 KHz
Resolution                       : 16 bits
Stream size                      : 91.9 MiB (19%)
Alignment                        : Aligned on interleaves
Interleave, duration             : 26 ms (0.65 video frame)
Interleave, preload duration     : 135 ms
Writing library                  : LAME3.98

The Vampire's Assistant, based on the popular series of books by Darren Shan called The Saga of Darren Shan, is a fantasy-adventure about a teenager who unknowingly breaks a 200-year-old truce between two warring factions of vampires, a peaceful group called the Vampire Clan who don't kill their victims, and a group of stereotypical bloodsucking killers called the Vampaneze. Pulled into a fantastic life of misunderstood sideshow freaks and grotesque creatures of the night, one teen will vanish from the safety of a boring existence and fulfill his destiny in a place drawn from nightmares.
 
http://www.imdb.com/title/tt0450405/

PLEASE SEED AND ENJOY THANKS

screens
 
http://img32.imageshack.us/img32/3148/cdfvaxvidviceavithumbs2.jpg